# xmcd
#
# Track frame offsets:
#	150
#	30055
#	39577
#	58700
#	72782
#	108420
#	120172
#	133785
#	172072
#	190695
#	219945
#
# Disc length: 3365 seconds
#
# Revision: 2
# Processed by: cddbd v1.5.2PL0 Copyright (c) Steve Scherf et al.
# Submitted via: EasyCDDAExtractor 12.0.4.1
#
DISCID=8d0d230b
DTITLE=Gary Moore - Blues for Greeny
DYEAR=1995
DGENRE=Blues
TTITLE0=If you be my baby
TTITLE1=Long grey mare
TTITLE2=Merry go round
TTITLE3=I loved another woman
TTITLE4=Need your live so bad
TTITLE5=The same way
TTITLE6=The supernatural
TTITLE7=Driffin'
TTITLE8=Showbiz Blues
TTITLE9=Love that burns
TTITLE10=Looking for somebody
EXTD=
EXTT0=
EXTT1=
EXTT2=
EXTT3=
EXTT4=
EXTT5=
EXTT6=
EXTT7=
EXTT8=
EXTT9=
EXTT10=
PLAYORDER=
